<?xml version="1.0" encoding="utf-8"?>
<svg xmlns="http://www.w3.org/2000/svg" >

    <symbol viewBox="0 0 384.97 384.97" id="hamburg">
        <g>
            <g id="Menu">
                <path d="M12.03,84.212h360.909c6.641,0,12.03-5.39,12.03-12.03c0-6.641-5.39-12.03-12.03-12.03H12.03
                    C5.39,60.152,0,65.541,0,72.182C0,78.823,5.39,84.212,12.03,84.212z"/>
                <path d="M372.939,180.455H12.03c-6.641,0-12.03,5.39-12.03,12.03s5.39,12.03,12.03,12.03h360.909c6.641,0,12.03-5.39,12.03-12.03
                    S379.58,180.455,372.939,180.455z"/>
                <path d="M372.939,300.758H12.03c-6.641,0-12.03,5.39-12.03,12.03c0,6.641,5.39,12.03,12.03,12.03h360.909
                    c6.641,0,12.03-5.39,12.03-12.03C384.97,306.147,379.58,300.758,372.939,300.758z"/>
            </g>
            <g>
            </g>
            <g>
            </g>
            <g>
            </g>
            <g>
            </g>
            <g>
            </g>
            <g>
            </g>
        </g>
        <g>
        </g>
        <g>
        </g>
        <g>
        </g>
        <g>
        </g>
        <g>
        </g>
        <g>
        </g>
        <g>
        </g>
        <g>
        </g>
        <g>
        </g>
        <g>
        </g>
        <g>
        </g>
        <g>
        </g>
        <g>
        </g>
        <g>
        </g>
        <g>
        </g>
    </symbol>

    <symbol viewBox="0 0 384.965 384.965" id="back">
        <g>
            <path id="Arrow_Left" d="M3.544,201.041L3.544,201.041L3.544,201.041l119.942,120.195c7.627,7.94,21.029,1.949,20.728-8.83v-59.863
                c0.048,0,0.096,0.024,0.144,0.024h228.576c6.617,0,12.03-5.414,12.03-12.03v-96.242c0-6.617-5.414-12.03-12.03-12.03H144.359
                c-0.048,0-0.096,0.024-0.144,0.024V72.485c0.289-10.731-13.017-16.554-20.632-8.926L3.556,183.849
                C-1.183,188.601-1.183,196.301,3.544,201.041z M120.094,101.43v54.906h0.205h12.03h11.886v-0.024c0.048,0,0.096,0.024,0.144,0.024
                h12.03h204.515v72.182H156.389h-12.03c-0.048,0-0.096,0.024-0.144,0.024v-0.024h-11.886h-12.03h-0.205v54.954l-90.829-91.021
                L120.094,101.43z"/>
            <g>
            </g>
            <g>
            </g>
            <g>
            </g>
            <g>
            </g>
            <g>
            </g>
            <g>
            </g>
        </g>
        <g>
        </g>
        <g>
        </g>
        <g>
        </g>
        <g>
        </g>
        <g>
        </g>
        <g>
        </g>
        <g>
        </g>
        <g>
        </g>
        <g>
        </g>
        <g>
        </g>
        <g>
        </g>
        <g>
        </g>
        <g>
        </g>
        <g>
        </g>
        <g>
        </g>
    </symbol>

</svg>